<svg xmlns="http://www.w3.org/2000/svg" viewBox="0 0 140 32" fill="white">
  <!-- A -->
  <svg x="2.842" y="6.717" width="21.321" height="19.664" viewBox="0 0 21.3212 19.6643" overflow="visible">
    <path d="M10.3516 8.10047L4.24196 19.3054C4.07116 19.6154 3.91996 19.6643 3.57836 19.6643H0.377961C0.0419613 19.6643 -0.0952388 19.4107 0.0699612 19.0993L10.3516 0.23356C10.5224 -0.0778535 10.7982 -0.0778535 10.9662 0.23356L21.2478 19.0993C21.4186 19.4107 21.2814 19.6643 20.9412 19.6643H10.2564C9.91756 19.6643 9.81256 19.6124 9.64316 19.3025L8.70936 17.6149C8.6464 17.5172 8.61426 17.4008 8.61752 17.2826C8.62079 17.1643 8.65931 17.0502 8.72756 16.9565L10.5476 13.6451C10.6316 13.4968 10.7464 13.4968 10.8276 13.6451L11.8888 15.5299C11.991 15.7034 12.0932 15.7568 12.334 15.7568H14.714C14.938 15.7568 15.0318 15.5625 14.9142 15.3505L10.9662 8.10047C10.787 7.77422 10.5252 7.78016 10.3516 8.10047Z"/>
  </svg>
  <!-- S -->
  <svg x="19.992" y="6.707" width="15.122" height="19.677" viewBox="0 0 15.1217 19.6769" overflow="visible">
    <path d="M9.065 7.56143H5.761C3.941 7.56143 3.801 6.25646 3.801 5.85903C3.79699 5.39105 3.96463 4.93968 4.2686 4.60003C4.6298 4.20557 5.1968 3.995 5.8968 3.995H12.7652C12.8446 3.99306 12.92 3.95831 12.9755 3.89817C13.031 3.83803 13.062 3.75728 13.062 3.6732L13.069 0.318832C13.0683 0.233745 13.0357 0.152431 12.9785 0.0926805C12.9213 0.0329303 12.8441 -0.000392246 12.7638 3.48482e-06H5.8926C2.0664 3.48482e-06 0 3.01627 0 5.86052C0 8.70476 1.9768 11.5638 5.761 11.5638H9.065C10.8542 11.5638 11.326 13.0052 11.326 13.7689C11.3321 14.0067 11.2937 14.2434 11.213 14.4654C11.1322 14.6873 11.0108 14.8901 10.8556 15.0621C10.381 15.5751 9.6208 15.6849 9.065 15.6849H5.705C5.62443 15.6849 5.54715 15.7188 5.49018 15.7791C5.43321 15.8395 5.4012 15.9213 5.4012 16.0067L5.39 19.3596C5.39111 19.4447 5.42399 19.5258 5.48145 19.5853C5.53891 19.6448 5.61627 19.6777 5.6966 19.6769H9.0664C11.382 19.6769 12.7904 18.6937 13.5576 17.8707C14.0612 17.3304 14.4586 16.6896 14.7271 15.9856C14.9955 15.2816 15.1295 14.5282 15.1214 13.7689C15.1214 10.7616 13.0004 7.56291 9.0664 7.56291"/>
  </svg>
  <!-- C -->
  <svg x="35.91" y="6.730" width="12.676" height="19.655" viewBox="0 0 12.6756 19.6547" overflow="visible">
    <path d="M9.1378 4.12253H12.3704C12.4512 4.12214 12.5286 4.08795 12.5858 4.02741C12.643 3.96687 12.6752 3.88487 12.6756 3.79925V0.321794C12.6752 0.236313 12.6429 0.154467 12.5857 0.0941609C12.5285 0.033855 12.4511 -8.99345e-07 12.3704 0H9.1378C5.5818 0 3.4412 1.68015 2.2778 3.08596C0.806398 4.84768 0 7.20108 0 9.73094C0 14.6617 3.1472 19.6547 9.1658 19.6547H12.3704C12.4103 19.6549 12.4498 19.6467 12.4868 19.6307C12.5237 19.5147 12.5573 19.5912 12.5856 19.5615C12.614 19.5317 12.6365 19.4964 12.6519 19.4574C12.6674 19.4184 12.6754 19.3766 12.6756 19.3344V15.8539C12.6754 15.8117 12.6674 15.7699 12.6519 15.7309C12.6365 15.6919 12.614 15.6566 12.5856 15.6268C12.5573 15.5971 12.5237 15.5735 12.4868 15.5575C12.4498 15.5416 12.4103 15.5334 12.3704 15.5336H9.1644C5.5398 15.5336 3.8906 12.5263 3.8906 9.72946C3.8906 8.20946 4.3512 6.81848 5.1884 5.81158C6.1222 4.689 7.448 4.12253 9.1364 4.12253"/>
  </svg>
  <!-- E -->
  <svg x="50.582" y="6.717" width="12.797" height="19.667" viewBox="0 0 12.7974 19.6665" overflow="visible">
    <path d="M4.1342 4.10918H12.4866C12.5265 4.10957 12.5662 4.10158 12.6032 4.08565C12.6402 4.06973 12.6739 4.0462 12.7022 4.01642C12.7306 3.98664 12.7531 3.95119 12.7685 3.91214C12.7839 3.87308 12.7918 3.83118 12.7918 3.78887V0.320311C12.7907 0.235209 12.7581 0.153965 12.701 0.0940607C12.644 0.0341566 12.567 0.000380657 12.4866 0H0.408802C0.149802 0 0 0.102322 0 0.428565V19.3062C0 19.5523 0.1596 19.6665 0.42 19.6665H12.4922C12.5321 19.6667 12.5716 19.6586 12.6086 19.6426C12.6455 19.6266 12.6791 19.6031 12.7074 19.5733C12.7358 19.5436 12.7583 19.5082 12.7737 19.4693C12.7892 19.4303 12.7972 19.3885 12.7974 19.3462V15.8243C12.7972 15.7821 12.7892 15.7403 12.7737 15.7015C12.7583 15.6626 12.7357 15.6273 12.7073 15.5977C12.679 15.5681 12.6454 15.5447 12.6085 15.5288C12.5715 15.513 12.532 15.5051 12.4922 15.5054H4.137C4.07633 15.5125 4.01547 15.4939 3.96772 15.4536C3.91998 15.4133 3.88923 15.3547 3.8822 15.2904V11.635H10.4622C10.5425 11.6339 10.6192 11.5993 10.6758 11.5389C10.7324 11.4784 10.7642 11.3968 10.7646 11.3117V7.84763C10.7652 7.80417 10.7575 7.76104 10.742 7.72081C10.7264 7.68057 10.7034 7.64407 10.6743 7.61348C10.6451 7.58288 10.6105 7.55883 10.5723 7.54275C10.5342 7.52667 10.4934 7.5189 10.4524 7.5199H3.8724V4.35386C3.8724 4.13587 3.9536 4.1077 4.1244 4.1077"/>
  </svg>
  <!-- N -->
  <svg x="65.38" y="6.483" width="14.645" height="20.123" viewBox="0 0 14.6454 20.1232" overflow="visible">
    <path d="M14.3402 0.231105H11.0838C11.0036 0.231492 10.9268 0.265316 10.8699 0.325261C10.8131 0.385205 10.7808 0.46645 10.78 0.551417V10.1622C10.78 10.3224 10.6512 10.3758 10.521 10.2927L0.460631 0.0605691C0.41843 0.0272445 0.368423 0.0067892 0.31603 0.00141991C0.263636 -0.00394939 0.210854 0.00597236 0.163404 0.0301095C0.115955 0.0542466 0.0756462 0.0916785 0.0468474 0.138349C0.0180486 0.18502 0.00185823 0.239149 2.97805e-05 0.294871V19.5729C-0.00109448 19.658 0.0296526 19.7401 0.0855388 19.8012C0.141425 19.8624 0.2179 19.8976 0.29823 19.8991H3.55463C3.59465 19.8987 3.63419 19.89 3.67101 19.8733C3.70782 19.8567 3.74116 19.8326 3.76913 19.8022C3.7971 19.7719 3.81914 19.7361 3.83399 19.6967C3.84883 19.6573 3.85619 19.6153 3.85563 19.5729V9.77817C3.85538 9.74244 3.86536 9.70748 3.88427 9.6779C3.90318 9.64832 3.93011 9.62552 3.96152 9.6125C3.99292 9.59948 4.02732 9.59687 4.06015 9.605C4.09299 9.61313 4.12273 9.63163 4.14543 9.65805L14.0854 19.9866C14.3822 20.2595 14.6454 20.083 14.6454 19.8116V0.551417C14.6447 0.466705 14.6126 0.385681 14.556 0.325778C14.4995 0.265875 14.423 0.231879 14.343 0.231105"/>
  </svg>
  <!-- D -->
  <svg x="82.026" y="6.730" width="15.297" height="19.654" viewBox="0 0 15.2966 19.6544" overflow="visible">
    <path d="M14.6612 5.6808C13.4572 2.21076 10.7076 0.00268426 5.91541 0.00268426H0.350406C0.302868 -0.00378544 0.25456 0.00147786 0.209261 0.0180637C0.163962 0.0346495 0.122901 0.0621082 0.0892817 0.0982927C0.0556628 0.134477 0.0303937 0.178407 0.0154621 0.226649C0.000530486 0.274891 -0.00365902 0.326136 0.00320868 0.37638V19.3311C0.00283194 19.4159 0.0340968 19.4975 0.0902045 19.558C0.146312 19.6186 0.222717 19.6532 0.302802 19.6544H5.739C7.33594 19.6544 8.73594 19.4161 9.939 18.9396C11.0531 18.5279 12.0623 17.8491 12.8879 16.9563C13.7136 16.0635 14.3334 14.9807 14.699 13.7924C15.1124 12.4837 15.3141 11.1105 15.2954 9.73066C15.3135 8.35147 15.0987 6.97995 14.6612 5.6808ZM10.0972 14.1097C8.97721 15.2442 8.31781 15.4844 5.54861 15.4844H4.00861C3.98734 15.4871 3.96577 15.4846 3.94555 15.4771C3.92534 15.4696 3.90702 15.4573 3.89201 15.4411C3.877 15.4249 3.86569 15.4053 3.85897 15.3837C3.85224 15.3622 3.85027 15.3393 3.85321 15.3168V4.28685C3.85321 4.13856 3.9008 4.07776 4.0506 4.07776H5.27841C8.00561 4.07776 8.9856 4.39807 10.1028 5.49543C11.1598 6.53348 11.4426 8.65999 11.4426 9.79591C11.4426 11.0149 11.1388 13.0583 10.1028 14.1068"/>
  </svg>
  <!-- U -->
  <svg x="98.98" y="6.714" width="15.547" height="19.909" viewBox="0 0 15.547 19.9087" overflow="visible">
    <path d="M15.2054 0.000499622H11.9994C11.9145 -0.00396969 11.8314 0.0271288 11.768 0.08707C11.7046 0.147011 11.666 0.230978 11.6606 0.320811V9.49417C11.6606 11.4828 11.5934 12.8115 11.039 13.9904C10.5756 14.9825 9.3016 15.7491 7.7742 15.7491C6.2468 15.7491 4.9742 14.9825 4.5052 13.9904C3.9452 12.8041 3.8822 11.4828 3.8822 9.49417V0.320811C3.87679 0.230707 3.83802 0.146509 3.77431 0.0865264C3.7106 0.0265438 3.62711 -0.00437264 3.542 0.000499622H0.337396C0.252846 -0.00318575 0.17028 0.028226 0.107264 0.0880498C0.044249 0.147874 0.0057644 0.231386 0 0.320811V9.60984C0 12.8011 0.21 14.5762 1.1116 16.2726C2.3142 18.5548 4.6242 19.9087 7.7756 19.9087C10.927 19.9087 13.2356 18.5548 14.4382 16.2726C15.3356 14.5762 15.547 12.8011 15.547 9.60984V0.320811C15.5412 0.230849 15.5024 0.14688 15.4387 0.086975C15.3751 0.0270699 15.2918 -0.00398269 15.2068 0.000499622"/>
  </svg>
  <!-- M -->
  <svg x="116.676" y="6.362" width="20.623" height="20.022" viewBox="0 0 20.6231 20.0216" overflow="visible">
    <path d="M20.58 19.6301C20.3952 19.292 10.8066 0.1371 10.8066 0.1371C10.7788 0.0909094 10.7395 0.0537817 10.6929 0.0298345C10.6464 0.0058872 10.5945 -0.00394417 10.5431 0.00143114C10.4916 0.00680646 10.4425 0.0271785 10.4013 0.0602873C10.3601 0.093396 10.3284 0.137948 10.3096 0.189002L7.94781 11.2605C7.93914 11.2767 7.92676 11.2904 7.91182 11.3002C7.89687 11.31 7.87985 11.3157 7.86229 11.3167C7.84473 11.3177 7.82721 11.3141 7.81133 11.3061C7.79545 11.2981 7.78172 11.286 7.77141 11.2709L0.541812 0.125236C0.320612 -0.104617 1.29454e-05 -0.00674409 1.29454e-05 0.343226V19.6909C-0.000735023 19.7776 0.0309562 19.861 0.0881538 19.923C0.145351 19.985 0.223397 20.0204 0.305212 20.0216H3.38521C3.46704 20.0201 3.54501 19.9845 3.60236 19.9227C3.6597 19.8608 3.69183 19.7776 3.69181 19.6909V12.128C3.69145 12.0854 3.70252 12.0435 3.72373 12.0073C3.74493 11.971 3.77541 11.9419 3.81161 11.9233C3.84782 11.9046 3.88827 11.8973 3.92828 11.902C3.96828 11.9068 4.00619 11.9234 4.03761 11.9501L9.20501 19.599C9.26941 19.728 9.51301 19.6865 9.51161 19.5842L11.5472 11.1478C11.5624 11.1083 11.5886 11.0747 11.6225 11.0516C11.6563 11.0285 11.696 11.0169 11.7362 11.0186C11.7764 11.0202 11.8152 11.0349 11.8473 11.0607C11.8793 11.0864 11.9031 11.122 11.9154 11.1626L16.5354 19.8244C16.5762 19.8874 16.6316 19.9383 16.6964 19.9721C16.7611 20.0058 16.833 20.0214 16.905 20.0172H20.3392C20.5772 20.0172 20.6892 19.8303 20.5828 19.6257"/>
  </svg>
</svg>
